<mxfile host="app.diagrams.net" modified="2023-05-22T12:52:07.993Z" agent="Mozilla/5.0 (Windows NT 10.0; Win64; x64) AppleWebKit/537.36 (KHTML, like Gecko) Chrome/113.0.0.0 Safari/537.36" etag="hb9VHuriyJe0bIzVjNlQ" version="21.3.2" type="github" pages="2">
  <diagram name="2D Controller" id="tXJ6dl-p5brDEcSfqaRl">
    <mxGraphModel dx="1809" dy="730" grid="1" gridSize="10" guides="1" tooltips="1" connect="1" arrows="1" fold="1" page="1" pageScale="1" pageWidth="827" pageHeight="1169" math="0" shadow="0">
      <root>
        <mxCell id="0" />
        <mxCell id="1" parent="0" />
        <mxCell id="Cfrn-0NsC7xaAQnLHsry-2" value="2D Move" style="swimlane;whiteSpace=wrap;html=1;" parent="1" vertex="1">
          <mxGeometry x="-798" y="20" width="770" height="80" as="geometry" />
        </mxCell>
        <mxCell id="Cfrn-0NsC7xaAQnLHsry-1" value="&lt;div style=&quot;color: rgb(212, 212, 212); background-color: rgb(30, 30, 30); font-family: Consolas, &amp;quot;Courier New&amp;quot;, monospace; font-size: 14px; line-height: 19px;&quot;&gt;rb.&lt;span style=&quot;color: #9cdcfe;&quot;&gt;velocity&lt;/span&gt; = &lt;span style=&quot;color: #569cd6;&quot;&gt;new&lt;/span&gt; &lt;span style=&quot;color: #4ec9b0;&quot;&gt;Vector2&lt;/span&gt;(&lt;span style=&quot;color: #9cdcfe;&quot;&gt;Input&lt;/span&gt;.&lt;span style=&quot;color: #dcdcaa;&quot;&gt;GetAxis&lt;/span&gt;(&lt;span style=&quot;color: #ce9178;&quot;&gt;&quot;Horizontal&quot;&lt;/span&gt;) * &lt;span style=&quot;color: #9cdcfe;&quot;&gt;speed&lt;/span&gt;, &lt;span style=&quot;color: #9cdcfe;&quot;&gt;Input&lt;/span&gt;.&lt;span style=&quot;color: #dcdcaa;&quot;&gt;GetAxis&lt;/span&gt;(&lt;span style=&quot;color: #ce9178;&quot;&gt;&quot;Vertical&quot;&lt;/span&gt;)* &lt;span style=&quot;color: #9cdcfe;&quot;&gt;speed&lt;/span&gt;);&lt;/div&gt;" style="text;html=1;strokeColor=none;fillColor=none;align=center;verticalAlign=middle;whiteSpace=wrap;rounded=0;" parent="Cfrn-0NsC7xaAQnLHsry-2" vertex="1">
          <mxGeometry x="-10" y="30" width="790" height="40" as="geometry" />
        </mxCell>
      </root>
    </mxGraphModel>
  </diagram>
  <diagram id="TnuhlUzvkg4B_Vect5qk" name="camera">
    <mxGraphModel dx="982" dy="730" grid="1" gridSize="10" guides="1" tooltips="1" connect="1" arrows="1" fold="1" page="1" pageScale="1" pageWidth="827" pageHeight="1169" math="0" shadow="0">
      <root>
        <mxCell id="0" />
        <mxCell id="1" parent="0" />
        <mxCell id="N3LG8Io3-DzzShVIKCr1-1" value="Vertical Container" style="swimlane;whiteSpace=wrap;html=1;" vertex="1" parent="1">
          <mxGeometry x="30" y="110" width="200" height="200" as="geometry" />
        </mxCell>
      </root>
    </mxGraphModel>
  </diagram>
</mxfile>
